<?xml version="1.0" encoding="UTF-8"?>
<!DOCTYPE svg PUBLIC "-//W3C//DTD SVG 1.1//EN" "http://www.w3.org/Graphics/SVG/1.1/DTD/svg11.dtd">
<!-- Creator: CorelDRAW X6 -->
<svg xmlns="http://www.w3.org/2000/svg" xml:space="preserve" width="210mm" height="152.732mm" version="1.1" style="shape-rendering:geometricPrecision; text-rendering:geometricPrecision; image-rendering:optimizeQuality; fill-rule:evenodd; clip-rule:evenodd"
viewBox="0 0 22297 16217"
 xmlns:xlink="http://www.w3.org/1999/xlink">
 <defs>
  <style type="text/css">
   <![CDATA[
    .fil1 {fill:#2688E1}
    .fil0 {fill:#6F6F6F}
    .fil6 {fill:#A3D3FF}
    .fil2 {fill:#C2E2FF}
    .fil3 {fill:#CACACA}
    .fil5 {fill:#E95353}
    .fil4 {fill:white}
   ]]>
  </style>
 </defs>
 <g id="Слой_x0020_1">
  <metadata id="CorelCorpID_0Corel-Layer"/>
  <g id="_256836304">
   <path class="fil0" d="M297 13959l0 1472c0,434 352,786 786,786l1941 0c434,0 786,-352 786,-786l0 -1472 -3513 0 0 0z"/>
   <path class="fil0" d="M18487 13959l0 1472c0,434 352,786 786,786l1942 0c434,0 786,-352 786,-786l0 -1472 -3514 0 0 0z"/>
   <path class="fil0" d="M22012 3319c-11,-8 -658,-145 -672,-148 -479,-102 -963,146 -1161,594l-142 323 -490 0 336 630 1842 -222c593,-72 784,-846 286,-1177z"/>
   <path class="fil1" d="M22001 7739l0 6216 -21707 0 0 -6216c0,-864 1037,-1477 1037,-1477 141,-943 1037,-1461 1037,-1461l1823 -3419c897,-1619 2460,-1367 2460,-1367l8991 0c0,0 1572,-251 2468,1367l1815 3419c0,0 896,519 1037,1461 0,0 1037,613 1037,1477z"/>
   <path class="fil2" d="M19610 4937c-599,-1083 -1199,-2205 -1799,-3355 -448,-825 -1178,-1305 -2167,-1223 -9637,-4 -9225,-15 -9225,-15 -469,-1 -1345,169 -1923,1233 -604,1153 -1207,2276 -1810,3360 5633,443 11291,443 16924,0z"/>
   <path class="fil0" d="M15903 9390l-589 2562c-126,543 -613,927 -1171,927l-5989 0c-558,0 -1045,-385 -1171,-927l-589 -2562c-212,-927 488,-1815 1438,-1815l6633 0c951,-1 1658,887 1438,1815z"/>
   <path class="fil3" d="M6084 7717l-4065 -672c-545,-90 -1063,299 -1106,849 -1,13 -2,26 -3,40 -28,446 258,854 689,975 653,184 1640,330 2200,-229l1530 19 755 -982z"/>
   <path class="fil0" d="M5649 11751c-137,-199 -355,-325 -594,-344l-3225 -259c-646,-52 -848,439 -917,1025 -54,468 307,887 777,898l3096 69c304,7 447,-123 680,-296 345,-256 424,-739 182,-1092z"/>
   <path class="fil0" d="M2260 4087l-142 -323c-198,-448 -682,-696 -1161,-594 -14,3 -660,141 -672,148 -498,332 -307,1106 286,1177l1842 222 336 -630 -490 0 0 0z"/>
   <rect class="fil4" x="8042" y="10035" width="6209" height="1320"/>
   <circle class="fil5" cx="1968" cy="7968" r="667"/>
   <path class="fil3" d="M16214 7717l4065 -672c545,-90 1063,299 1106,849 1,13 2,26 3,40 28,446 -258,854 -689,975 -653,184 -1640,330 -2200,-229l-1530 19 -755 -982z"/>
   <path class="fil0" d="M20467 11148l-3225 259c-240,19 -458,146 -594,344 -258,377 -210,800 366,1230 143,107 317,162 495,158l3096 -69c471,-10 832,-430 777,-898 -68,-586 -271,-1077 -917,-1025z"/>
   <circle class="fil5" cx="20329" cy="7968" r="667"/>
   <path class="fil6" d="M13596 358c-7529,-4 -7178,-14 -7178,-14 -469,-1 -1345,169 -1923,1233 -604,1153 -1207,2276 -1810,3360 2006,158 4016,259 6027,305l4884 -4884z"/>
  </g>
 </g>
</svg>
