<?xml version="1.0" encoding="UTF-8"?>
<!DOCTYPE svg PUBLIC "-//W3C//DTD SVG 1.1//EN" "http://www.w3.org/Graphics/SVG/1.1/DTD/svg11.dtd">
<!-- Creator: CorelDRAW X6 -->
<svg xmlns="http://www.w3.org/2000/svg" xml:space="preserve" width="213.553mm" height="179.62mm" version="1.1" style="shape-rendering:geometricPrecision; text-rendering:geometricPrecision; image-rendering:optimizeQuality; fill-rule:evenodd; clip-rule:evenodd"
viewBox="0 0 6216 5228"
 xmlns:xlink="http://www.w3.org/1999/xlink">
 <defs>
  <style type="text/css">
   <![CDATA[
    .fil0 {fill:#2688E1}
    .fil2 {fill:#2C94F5}
    .fil1 {fill:#FFE773}
    .fil3 {fill:#FFEC8F}
   ]]>
  </style>
 </defs>
 <g id="Слой_x0020_1">
  <metadata id="CorelCorpID_0Corel-Layer"/>
  <path class="fil0" d="M6216 2463l0 830c0,73 -59,132 -132,132l-291 0c-117,391 -360,741 -695,989 -34,25 -54,64 -54,106l0 393c0,174 -142,316 -316,316l-461 0c-174,0 -316,-142 -316,-316 0,-73 -59,-132 -132,-132l-1040 0c-73,0 -132,59 -132,132 0,175 -142,316 -316,316l-461 0c-174,0 -316,-142 -316,-316l0 -394c0,-41 -20,-80 -53,-105 -1207,-905 -930,-2767 448,-3300l0 0c10,-616 513,-1113 1132,-1113 630,0 1056,474 1124,999l2 0c255,31 494,112 706,233 282,-325 770,20 781,292 4,104 -56,204 -148,289 91,133 165,278 219,430 19,52 68,87 124,87l196 0c73,0 132,59 132,132l0 0z"/>
  <path class="fil1" d="M3808 2002l-1452 0c-279,-233 -418,-581 -406,-889 10,-616 513,-1113 1132,-1113 1053,0 1538,1323 726,2002l0 0z"/>
  <path class="fil2" d="M5694 1524c13,339 -667,647 -863,487 -183,-149 -81,-822 279,-904 252,-57 575,188 584,417z"/>
  <path class="fil2" d="M737 2990l-181 0c-183,0 -331,-149 -331,-331 0,-66 -54,-120 -120,-120 -58,0 -105,-47 -105,-105 0,-58 47,-105 105,-105 183,0 331,149 331,331 0,66 54,120 120,120l180 0c58,0 106,47 106,105 0,58 -47,105 -105,105l0 0z"/>
  <path class="fil2" d="M2108 1712c-565,412 -836,1016 -882,1672 -17,235 -346,269 -413,43 -278,-947 211,-1956 1136,-2314l0 0c-7,184 45,407 159,599z"/>
  <path class="fil2" d="M4913 1232c-36,41 -67,90 -91,143 -205,-65 -409,-110 -611,-137 7,-80 5,-160 -5,-239l2 0c255,31 494,112 706,233l0 0z"/>
  <path class="fil3" d="M3518 84c95,39 65,180 -37,179 -900,-3 -1436,991 -962,1738l-164 0c-284,-237 -418,-588 -406,-889 10,-616 513,-1113 1132,-1113 159,0 306,30 437,84l0 0z"/>
  <path class="fil2" d="M4214 2107l-2265 0c-58,0 -105,-47 -105,-105 0,-58 47,-105 105,-105l2265 0c58,0 105,47 105,105 0,58 -47,105 -105,105l0 0z"/>
  <path class="fil0" d="M5012 1772c58,-499 433,-645 583,-471 59,68 97,146 100,223 7,184 -190,359 -403,454 -142,64 -298,-52 -280,-206z"/>
  <path class="fil2" d="M5594 1888c39,63 18,146 -47,183 -255,148 -566,211 -697,100 -58,-49 -7,-144 66,-124 202,54 520,-131 629,-234 17,24 33,49 48,74l0 0z"/>
  <path class="fil2" d="M2779 4781c-73,0 -132,59 -132,132 0,175 -142,316 -316,316l-73 0c-87,0 -149,-83 -125,-166l11 -37c42,-145 175,-244 326,-244l309 0z"/>
  <path class="fil2" d="M5074 4435c-40,49 -30,51 -30,477 0,175 -142,316 -316,316l-182 0c-69,0 -125,-56 -125,-125l0 -72c0,-134 84,-252 208,-300 164,-64 317,-162 446,-296l0 0z"/>
 </g>
</svg>
