<?xml version="1.0" encoding="UTF-8"?>
<!DOCTYPE svg PUBLIC "-//W3C//DTD SVG 1.1//EN" "http://www.w3.org/Graphics/SVG/1.1/DTD/svg11.dtd">
<!-- Creator: CorelDRAW X6 -->
<svg xmlns="http://www.w3.org/2000/svg" xml:space="preserve" width="183.781mm" height="183.781mm" version="1.1" style="shape-rendering:geometricPrecision; text-rendering:geometricPrecision; image-rendering:optimizeQuality; fill-rule:evenodd; clip-rule:evenodd"
viewBox="0 0 35368 35368"
 xmlns:xlink="http://www.w3.org/1999/xlink">
 <defs>
  <style type="text/css">
   <![CDATA[
    .fil7 {fill:#2B2A29}
    .fil6 {fill:#434242}
    .fil5 {fill:#EBECEC}
    .fil4 {fill:#FEFEFE}
    .fil3 {fill:#2688E1}
    .fil2 {fill:#2C94F5}
    .fil1 {fill:#7D9637}
    .fil0 {fill:#8DA93E}
   ]]>
  </style>
 </defs>
 <g id="Слой_x0020_1">
  <metadata id="CorelCorpID_0Corel-Layer"/>
  <path class="fil0" d="M31568 35368l-15197 0c-2095,0 -3799,-1704 -3799,-3799l0 -17960c0,-224 73,-442 207,-622l6217 -8289c196,-261 503,-414 829,-414l8289 0c326,0 633,154 829,414l6217 8289c135,179 207,398 207,622l0 17960c0,2095 -1704,3799 -3799,3799zm-5302 -25968c-265,0 -530,-101 -733,-304l-2930 -2931c-405,-405 -405,-1061 0,-1465 404,-404 1061,-404 1465,0l2931 2931c405,405 405,1061 0,1465 -202,202 -467,304 -732,304z"/>
  <path class="fil1" d="M35160 12987l-6217 -8289c-196,-261 -503,-414 -829,-414l-4145 0 0 330c34,26 67,55 98,87l1465 1465 1465 1465c6,6 13,13 19,19 6,6 12,13 18,19 6,7 12,13 17,20 6,7 11,13 17,20l0 0c6,7 11,14 16,20 5,7 11,14 16,21l0 0c5,7 10,14 15,21l0 0c5,7 10,14 15,21l0 0c5,7 9,14 14,22 5,7 9,15 13,22l0 0c4,7 9,15 13,22 4,7 8,15 12,22l0 0c4,8 8,15 12,23 4,8 7,15 11,23l0 0c4,8 7,15 10,23 3,8 7,15 10,23 3,8 6,16 9,23l0 0c3,8 6,16 9,24 3,8 5,16 8,24 3,8 5,16 7,24 2,8 5,16 7,24 2,8 4,16 6,24 2,8 4,16 6,24 2,8 3,16 5,24 2,8 3,16 4,25 1,8 3,16 4,25l0 0c1,8 2,16 3,25 1,8 2,16 3,25 1,8 1,17 2,25 1,8 1,17 1,25 0,8 1,17 1,25l0 0c0,8 0,17 0,25l0 0c0,8 0,17 0,25l0 0c0,8 -1,17 -1,25 0,8 -1,17 -1,25 -1,8 -1,17 -2,25l0 0c-1,8 -2,16 -3,25 -1,8 -2,16 -3,25l0 0c-1,8 -2,16 -4,25 -1,8 -3,16 -4,25 -2,8 -3,16 -5,24 -2,8 -4,16 -6,24l0 0c-2,8 -4,16 -6,24l0 0c-2,8 -4,16 -7,24l0 0c-2,8 -5,16 -7,24 -3,8 -5,16 -8,24 -3,8 -6,16 -9,24 -3,8 -6,16 -9,23 -3,8 -6,16 -10,23l0 0c-3,8 -7,15 -10,23 -4,8 -7,15 -11,23 -4,8 -8,15 -12,23l0 0c-4,8 -8,15 -12,22 -4,7 -8,15 -13,22l0 0c-4,7 -9,15 -13,22 -5,7 -9,15 -14,22 -5,7 -10,14 -15,21 -5,7 -10,14 -15,21 -5,7 -10,14 -16,21 -5,7 -11,14 -16,21 -6,7 -11,13 -17,20 -6,7 -12,13 -17,20 -6,7 -12,13 -18,19 -6,6 -12,13 -19,19l-10 9 -10 9 -10 9 -10 9 -10 9 -10 9 -10 9 -10 8 -10 8 -10 8 -10 8 -10 8 -11 8 -11 7 -11 7 -11 7 -11 7 -11 7 -11 7 0 0 -11 7 -11 6 -11 6 -11 6 -11 6 0 0 -11 6 -11 6 0 0 -11 6 0 0 -11 5 -12 5 -12 5 -12 5 -12 5 -12 5 -12 5 -12 4 -12 4 -12 4 -12 4 -12 4 -12 4 -12 4 -12 3 -12 3 -12 3 0 0 -12 3 -12 3 -12 3 -12 2 -12 2 -12 2 -12 2 -12 2 -12 2 -12 2 -12 1 -12 1 0 0 -12 1 -12 1 -12 1 0 0 -12 1 -12 1 -12 0 0 0 -12 0 0 0 -12 0 -12 0 0 0 -12 0 0 0 -12 0 0 0 -12 -1 0 0 -12 -1 0 0c-12,-1 -25,-2 -37,-3l0 0 -12 -1 0 0 -12 -1 0 0 -12 -2 0 0 -12 -2 0 0 -12 -2 0 0 -12 -2 0 0c-8,-1 -16,-3 -25,-4l0 0c-8,-2 -16,-3 -24,-5l0 0 -12 -3 0 0c-8,-2 -16,-4 -24,-6 -12,-3 -24,-6 -36,-10l0 0 -12 -4 0 0c-8,-2 -16,-5 -24,-8l0 0 -12 -4 0 0 -12 -4 0 0c-8,-3 -16,-6 -24,-9l-12 -5 0 0 -12 -5 -12 -5 0 0 -12 -5 0 0 -12 -5 -11 -5 0 0 -11 -6 0 0 -11 -6 0 0 -11 -6 0 0 -11 -6 0 0 -11 -6 -11 -6 0 0 -11 -6 0 0 -11 -7 0 0 -11 -7 0 0 -11 -7 0 0 -11 -7 0 0 -11 -7 0 0 -11 -7 0 0 -11 -7 0 0 -11 -8 0 0 -10 -8 0 0 -10 -8 0 0 -10 -8 0 0 -10 -8 0 0 -10 -8 -10 -9 0 0 -10 -9 0 0 -10 -9 0 0 -10 -9 -10 -9 0 0 -10 -9 0 0 -10 -9 0 0 -225 -225 -1338 -1338 0 27836 7599 0c2095,0 3799,-1704 3799,-3799l0 -17960c0,-224 -73,-442 -207,-622zm-8894 -3587l0 0 0 0z"/>
  <path class="fil2" d="M11857 30588l-10746 -10746c-737,-737 -1108,-1705 -1111,-2674l0 -26c3,-969 373,-1936 1111,-2674l12700 -12699c158,-159 364,-262 586,-293l10258 -1465c323,-46 648,63 879,293l5861 5862c231,231 339,556 293,879l-1465 10258c-32,222 -135,428 -293,586l-12700 12700c-1481,1481 -3892,1481 -5373,0zm14409 -21188c-265,0 -530,-101 -733,-304l-2930 -2931c-405,-405 -405,-1061 0,-1465 404,-404 1061,-404 1465,0l2931 2931c405,405 405,1061 0,1465 -202,202 -467,304 -732,304z"/>
  <path class="fil3" d="M30223 17302l1465 -10258c46,-323 -63,-648 -293,-879l-2931 -2931 -2931 2931 1465 1465c405,405 405,1061 0,1465 -202,202 -467,304 -732,304 -265,0 -530,-101 -733,-304l-1465 -1465 -17584 17584 5373 5373c1482,1481 3892,1481 5373,0l12700 -12700c159,-159 262,-364 293,-586z"/>
  <path class="fil4" d="M12346 24238c-269,-269 -379,-676 -251,-1061l4885 -14653c181,-543 768,-836 1311,-655 543,181 836,768 655,1311l-4884 14653c-181,543 -768,836 -1311,656 -158,-52 -295,-140 -405,-250z"/>
  <path class="fil5" d="M24069 13979c-1212,-1212 -3185,-1212 -4398,0 -1213,1212 -1213,3185 0,4398 1212,1213 3185,1213 4398,0 1212,-1212 1212,-3185 0,-4398zm-1466 2932c-404,404 -1062,404 -1466,0 -404,-404 -404,-1062 0,-1466 404,-404 1062,-404 1466,0 404,404 404,1062 0,1466z"/>
  <path class="fil4" d="M11369 13979c-1212,-1212 -3185,-1212 -4398,0 -1212,1212 -1212,3185 0,4398 1212,1213 3185,1213 4398,0 1213,-1212 1213,-3185 0,-4398zm-1466 2932c-404,404 -1062,404 -1466,0 -404,-404 -404,-1062 0,-1466 404,-404 1062,-404 1466,0 404,404 404,1062 0,1466z"/>
  <path class="fil5" d="M14061 23832l3098 -9292 -3276 3276 -1787 5361c-128,385 -18,792 251,1061 110,110 247,197 404,250 543,181 1130,-113 1311,-656z"/>
  <path class="fil6" d="M31395 303c-202,-202 -466,-303 -730,-303l-5 0c-264,1 -529,102 -730,303l-5129 5129 1465 1465 5129 -5129c405,-404 405,-1061 0,-1465z"/>
  <path class="fil7" d="M31395 1769c405,-404 405,-1061 0,-1465l-5861 5862 733 733 5129 -5129z"/>
 </g>
</svg>
