<?xml version="1.0" encoding="UTF-8"?>
<!DOCTYPE svg PUBLIC "-//W3C//DTD SVG 1.1//EN" "http://www.w3.org/Graphics/SVG/1.1/DTD/svg11.dtd">
<!-- Creator: CorelDRAW X6 -->
<svg xmlns="http://www.w3.org/2000/svg" xml:space="preserve" width="135.441mm" height="135.175mm" version="1.1" style="shape-rendering:geometricPrecision; text-rendering:geometricPrecision; image-rendering:optimizeQuality; fill-rule:evenodd; clip-rule:evenodd"
viewBox="0 0 3951 3943"
 xmlns:xlink="http://www.w3.org/1999/xlink">
 <defs>
  <style type="text/css">
   <![CDATA[
    .fil1 {fill:#2589DE}
    .fil4 {fill:#2C95F2}
    .fil0 {fill:#7D9637}
    .fil2 {fill:#8DA93E}
    .fil6 {fill:#EBECEC}
    .fil5 {fill:#FEFEFE}
    .fil3 {fill:white}
   ]]>
  </style>
 </defs>
 <g id="Слой_x0020_1">
  <metadata id="CorelCorpID_0Corel-Layer"/>
  <path class="fil0" d="M3951 2215l0 374c0,112 -91,203 -203,203 0,0 -10,0 -25,0l0 878c0,151 -122,273 -273,273l-3176 0c-151,0 -273,-122 -273,-273l0 -2538c0,-151 122,-273 273,-273l281 0 0 -655c0,-112 91,-203 203,-203l269 0 0 1102 2536 0 0 -217c93,43 159,138 159,248l0 878 25 0c112,0 203,91 203,203l0 0z"/>
  <path class="fil1" d="M2112 860l-1558 0 0 -655c0,-112 91,-203 203,-203l1149 0c85,0 159,52 190,128 21,50 15,15 15,732l0 0 0 -2z"/>
  <path class="fil2" d="M3951 2215l0 374c0,112 -91,203 -203,203 -101,0 -599,0 -657,0 -112,0 -203,-91 -203,-203l0 -374c0,-112 91,-203 203,-203l655 0c112,0 203,91 203,203l2 0z"/>
  <path class="fil2" d="M3747 2265l-281 0c-178,0 -324,145 -324,324 0,165 -246,174 -256,10 0,-8 0,-393 0,-386 0,-112 91,-203 203,-203l655 0c176,0 167,256 0,256l2 0z"/>
  <path class="fil3" d="M3278 2470l-103 0c-37,0 -68,-31 -68,-68 0,-37 31,-68 68,-68l103 0c37,0 68,31 68,68 0,37 -31,68 -68,68l0 0z"/>
  <path class="fil2" d="M3722 1133c0,132 -107,238 -238,238l-639 0c-1288,0 -2333,1044 -2333,2333 0,132 -107,238 -238,238 -151,0 -273,-122 -273,-273l0 -2538c0,-151 122,-273 273,-273l3176 0c151,0 273,122 273,273l0 0 0 2z"/>
  <path class="fil4" d="M1953 341l-854 0c-112,0 -203,91 -203,203l0 316 -341 0 0 -655c0,-112 91,-203 203,-203l1149 0c83,0 157,50 190,128 41,101 -35,213 -143,213l0 0 0 -2z"/>
  <polygon class="fil5" points="988,0 1354,0 1354,860 988,860 "/>
  <path class="fil6" d="M1354 0l0 341 -256 0c-41,0 -79,12 -110,33l0 -374 366 0z"/>
 </g>
</svg>
