<?xml version="1.0" encoding="UTF-8"?>
<!DOCTYPE svg PUBLIC "-//W3C//DTD SVG 1.1//EN" "http://www.w3.org/Graphics/SVG/1.1/DTD/svg11.dtd">
<!-- Creator: CorelDRAW X6 -->
<svg xmlns="http://www.w3.org/2000/svg" xml:space="preserve" width="210.038mm" height="210.104mm" version="1.1" style="shape-rendering:geometricPrecision; text-rendering:geometricPrecision; image-rendering:optimizeQuality; fill-rule:evenodd; clip-rule:evenodd"
viewBox="0 0 6588 6590"
 xmlns:xlink="http://www.w3.org/1999/xlink">
 <defs>
  <style type="text/css">
   <![CDATA[
    .fil0 {fill:#2589DE}
    .fil1 {fill:#2C95F2}
    .fil2 {fill:#EBECEC}
    .fil3 {fill:#FEFEFE}
   ]]>
  </style>
 </defs>
 <g id="Слой_x0020_1">
  <metadata id="CorelCorpID_0Corel-Layer"/>
  <path class="fil0" d="M6286 3295l288 -754c32,-83 8,-178 -63,-233l-626 -507 -126 -798c-14,-89 -83,-156 -172,-172l-798 -126 -507 -628c-55,-69 -152,-95 -233,-63l-754 290 -754 -288c-83,-32 -178,-6 -233,63l-507 628 -798 126c-87,14 -156,83 -172,172l-126 798 -628 507c-69,55 -95,150 -63,233l288 754 -288 754c-32,83 -6,178 63,233l628 507 126 798c14,89 83,158 172,172l798 126 507 626c57,69 150,95 233,63l754 -288 754 288c24,10 49,14 73,14 61,0 120,-28 160,-77l507 -626 798 -126c89,-14 158,-83 172,-172l126 -798 626 -507c69,-57 95,-150 63,-233l-288 -754 0 -2z"/>
  <path class="fil1" d="M3295 304l-754 -288c-83,-32 -178,-6 -233,63l-507 628 -798 126c-87,14 -156,83 -172,172l-126 798 -628 507c-69,55 -95,150 -63,233l288 754 -288 754c-32,83 -6,178 63,233l628 507 126 798c14,89 83,158 172,172l798 126 507 626c57,69 150,95 233,63l754 -288 0 -5982 0 -2z"/>
  <path class="fil2" d="M2677 2884c-340,0 -618,-276 -618,-618 0,-340 276,-618 618,-618 340,0 618,276 618,618 0,340 -276,618 -618,618zm0 -823c-115,0 -205,93 -205,205 0,115 93,205 205,205 115,0 205,-93 205,-205 0,-115 -93,-205 -205,-205z"/>
  <path class="fil3" d="M3913 4941c-340,0 -618,-276 -618,-618 0,-340 276,-618 618,-618 340,0 618,276 618,618 0,340 -276,618 -618,618zm0 -823c-113,0 -205,93 -205,205 0,113 93,205 205,205 113,0 205,-93 205,-205 0,-113 -93,-205 -205,-205z"/>
  <path class="fil2" d="M2266 4941c-41,0 -83,-12 -118,-38 -93,-67 -115,-195 -47,-288l2059 -2882c67,-93 195,-115 288,-47 93,65 115,195 47,286l-2059 2882c-41,57 -105,87 -168,87l-2 0z"/>
  <path class="fil3" d="M3295 2941l863 -1206c67,-93 195,-115 288,-47 93,65 115,195 47,286l-1196 1676 0 -709 -2 0z"/>
 </g>
</svg>
